# xmcd CD database file generated by MAGIX_Freedb v0.9beta0
# 
# Track frame offsets:
#      150
#      20047
#      36507
#      56610
#      73509
#      89210
#      109293
#      128049
#      146675
#      161868
#      179392
#      197871
#      220432
#      237226
#      255455
#      273669
#      289664
#      307284
#      324273
# 
# Disc length: 4542 seconds
# 
# Revision: 5 
# Processed by: cddbd v1.5.2PL0 Copyright (c) Steve Scherf et al.
# Submitted via: MAGIX_Freedb v0.9beta0
# 
DISCID=3711bc13
DTITLE=Rosenstolz - Das große Leben
DYEAR=2006
DGENRE=
TTITLE0=Rosenstolz - Nichts von alledem (tut mir leid)
TTITLE1=Rosenstolz - Ich bin ich (Wir sind wir)
TTITLE2=Rosenstolz - Anders als geplant
TTITLE3=Rosenstolz - Ich geh in Flammen auf
TTITLE4=Rosenstolz - Ein Wunder für mich
TTITLE5=Rosenstolz - Auch im Regen
TTITLE6=Rosenstolz - Ich bin verändert
TTITLE7=Rosenstolz - Bester Feind
TTITLE8=Rosenstolz - Ich hab genauso Angst wie du
TTITLE9=Rosenstolz - Aus Liebe wollt ich alles wissen
TTITLE10=Rosenstolz - Etwas zerstört
TTITLE11=Rosenstolz - Woran hält sich die Liebe
TTITLE12=Rosenstolz - Das Glück liegt auf der Straße
TTITLE13=Rosenstolz - Mein Sex
TTITLE14=Rosenstolz - Kannst du mich hochziehn
TTITLE15=Rosenstolz - Alles falsch gemacht
TTITLE16=Rosenstolz - Wo bist du
TTITLE17=Rosenstolz - Horizont
TTITLE18=Rosenstolz - Ich bin ich (Akustik Version)
EXTD=
EXTT0=
EXTT1=
EXTT2=
EXTT3=
EXTT4=
EXTT5=
EXTT6=
EXTT7=
EXTT8=
EXTT9=
EXTT10=
EXTT11=
EXTT12=
EXTT13=
EXTT14=
EXTT15=
EXTT16=
EXTT17=
EXTT18=
PLAYORDER=
